<?xml version="1.0" standalone="no"?>
<!DOCTYPE svg PUBLIC "-//W3C//DTD SVG 20010904//EN"
 "http://www.w3.org/TR/2001/REC-SVG-20010904/DTD/svg10.dtd">
<svg version="1.0" xmlns="http://www.w3.org/2000/svg"
 width="512.000000pt" height="512.000000pt" viewBox="0 0 512.000000 512.000000"
 preserveAspectRatio="xMidYMid meet">
<metadata>
Created by potrace 1.11, written by Peter Selinger 2001-2013
</metadata>
<g transform="translate(0.000000,512.000000) scale(0.100000,-0.100000)"
fill="#000000" stroke="none">
<path d="M2480 5007 c-403 -233 -541 -313 -572 -333 -21 -13 -40 -24 -42 -24
-2 0 -60 -32 -128 -71 -67 -39 -139 -80 -158 -91 -19 -11 -46 -28 -60 -37 -14
-10 -54 -33 -90 -53 -114 -62 -154 -84 -210 -118 -57 -34 -390 -226 -663 -383
l-157 -90 2 -1249 3 -1249 55 -31 c30 -16 76 -43 103 -59 26 -16 49 -29 51
-29 3 0 42 -23 88 -51 45 -28 101 -61 123 -74 22 -12 83 -47 135 -77 52 -30
115 -66 140 -80 25 -14 115 -65 200 -113 85 -48 171 -97 190 -108 19 -10 67
-38 105 -61 39 -24 77 -46 85 -49 8 -4 29 -15 45 -26 41 -25 371 -218 420
-245 22 -13 122 -71 223 -129 100 -59 187 -107 193 -107 6 0 31 12 57 27 67
40 63 38 263 153 101 58 199 115 218 126 20 12 110 64 201 116 230 133 669
386 705 408 17 10 57 33 90 52 33 19 173 100 310 180 138 80 265 153 283 162
l32 17 0 1248 0 1248 -62 33 c-35 19 -141 80 -235 137 -95 57 -175 103 -178
103 -2 0 -53 29 -112 64 -123 72 -132 78 -343 196 -85 47 -184 105 -220 127
-36 23 -141 84 -235 137 -93 53 -177 101 -185 106 -8 5 -71 41 -140 81 -69 40
-159 92 -200 117 -41 25 -100 59 -130 75 -30 17 -67 38 -82 49 -14 10 -30 18
-35 18 -4 0 -42 -20 -83 -43z"/>
</g>
</svg>
